<svg width="92" height="92" viewBox="0 0 92 92" fill="none" xmlns="http://www.w3.org/2000/svg">
<path d="M46 0C36.9021 0 28.0084 2.69785 20.4438 7.7524C12.8791 12.8069 6.98319 19.9912 3.50156 28.3966C0.0199315 36.802 -0.891022 46.051 0.883898 54.9742C2.65882 63.8973 7.03989 72.0937 13.4731 78.5269C19.9063 84.9601 28.1027 89.3412 37.0259 91.1161C45.949 92.891 55.1981 91.9801 63.6035 88.4985C72.0089 85.0168 79.1931 79.1209 84.2476 71.5562C89.3022 63.9916 92 55.0979 92 46C91.9852 33.8046 87.134 22.1129 78.5105 13.4895C69.8871 4.86601 58.1954 0.014835 46 0ZM69.644 32.936L39.008 63.5413C38.5699 64.0077 37.9857 64.3106 37.352 64.4C37.1599 64.4372 36.965 64.4577 36.7693 64.4613C36.6034 64.4712 36.4371 64.4504 36.2787 64.4C35.6451 64.3106 35.0609 64.0077 34.6227 63.5413L22.356 51.3053C22.0717 51.0216 21.8461 50.6847 21.6922 50.3137C21.5383 49.9427 21.4591 49.545 21.4591 49.1433C21.4591 48.7417 21.5383 48.344 21.6922 47.973C21.8461 47.602 22.0717 47.265 22.356 46.9813C22.935 46.4068 23.7177 46.0844 24.5334 46.0844C25.349 46.0844 26.1317 46.4068 26.7107 46.9813L36.8307 57.1013L65.2894 28.612C65.8684 28.0375 66.651 27.7151 67.4667 27.7151C68.2824 27.7151 69.065 28.0375 69.644 28.612C69.9283 28.8957 70.1538 29.2327 70.3077 29.6037C70.4616 29.9747 70.5408 30.3724 70.5408 30.774C70.5408 31.1756 70.4616 31.5733 70.3077 31.9443C70.1538 32.3153 69.9283 32.6523 69.644 32.936Z" fill="#06AE60"/>
</svg>
