<svg width="25" height="24" viewBox="0 0 25 24" fill="none" xmlns="http://www.w3.org/2000/svg">
<path d="M12.0518 0C9.67839 0 7.35831 0.703788 5.38492 2.02236C3.41153 3.34094 1.87346 5.21508 0.965209 7.4078C0.0569572 9.60051 -0.180683 12.0133 0.28234 14.3411C0.745362 16.6689 1.88825 18.807 3.56648 20.4853C5.24471 22.1635 7.38291 23.3064 9.71068 23.7694C12.0384 24.2324 14.4512 23.9948 16.644 23.0865C18.8367 22.1783 20.7108 20.6402 22.0294 18.6668C23.348 16.6934 24.0518 14.3734 24.0518 12C24.0481 8.81853 22.7826 5.76841 20.533 3.51877C18.2834 1.26912 15.2332 0.00366459 12.0518 0ZM12.0518 22.1538C10.0435 22.1538 8.08038 21.5583 6.41059 20.4426C4.7408 19.3269 3.43935 17.7411 2.67083 15.8857C1.90231 14.0303 1.70123 11.9887 2.09302 10.0191C2.48481 8.04943 3.45187 6.24019 4.87191 4.82015C6.29195 3.40011 8.10119 2.43305 10.0708 2.04126C12.0405 1.64947 14.0821 1.85055 15.9375 2.61907C17.7928 3.38759 19.3787 4.68903 20.4944 6.35882C21.6101 8.02861 22.2056 9.99176 22.2056 12C22.2024 14.692 21.1316 17.2728 19.2281 19.1763C17.3246 21.0799 14.7438 22.1507 12.0518 22.1538Z" fill="white"/>
<path d="M12.9751 4.61539H11.1289V12C11.129 12.2448 11.2262 12.4795 11.3994 12.6526L15.7443 16.9975L17.0495 15.6923L12.9751 11.6178V4.61539Z" fill="white"/>
</svg>
