<svg width="25" height="24" viewBox="0 0 25 24" fill="none" xmlns="http://www.w3.org/2000/svg">
<path d="M13.4939 1.79346C13.4939 1.79346 13.4939 1.81983 13.4939 1.79346C12.8853 2.40005 12.4619 3.08576 12.1444 3.79785L8.14878 2.82203H8.12232C8.09586 2.82203 8.0694 2.82203 8.01648 2.82203C7.99002 2.82203 7.93709 2.82203 7.91063 2.82203C7.88417 2.82203 7.85771 2.82203 7.80479 2.82203C7.77833 2.82203 7.72541 2.82203 7.69895 2.8484H7.67249L1.93048 4.37807C0.819123 4.66817 0.0517578 5.67037 0.0517578 6.80443V20.9934C0.0517578 21.7846 0.42221 22.4967 1.03081 22.9714C1.48064 23.3143 2.00986 23.4989 2.56554 23.4989C2.77723 23.4989 3.01537 23.4725 3.22706 23.4198L7.91063 22.1802L15.1344 23.9736H15.1609C15.2138 24 15.2932 24 15.3726 24C15.4255 24 15.5049 24 15.5578 23.9736H15.5843L21.829 22.444C22.9404 22.1538 23.7342 21.178 23.7342 20.0176V8.14949C23.9459 7.51652 24.0518 6.88355 24.0518 6.19784C24.0518 4.56268 23.3902 3.00664 22.226 1.8462C19.818 -0.606538 15.9018 -0.606538 13.4939 1.79346ZM6.9845 20.4923L2.75077 21.6264C2.53908 21.6791 2.35385 21.6264 2.16863 21.5209C2.00986 21.389 1.90402 21.2044 1.90402 20.9934V6.77806C1.90402 6.48795 2.1157 6.22422 2.40677 6.14509L6.9845 4.93191V20.4923ZM14.4465 21.8374L8.86322 20.4659V4.90554L11.721 5.59125C11.5622 7.35828 12.1444 9.15168 13.4939 10.4967L14.4465 11.4462V21.8374ZM14.7905 6.09235C14.7905 4.40444 16.1664 3.00664 17.8864 3.00664C19.6063 3.00664 20.9823 4.37807 20.9823 6.09235C20.9823 7.80663 19.6063 9.17805 17.8864 9.17805C16.1664 9.17805 14.7905 7.80663 14.7905 6.09235ZM21.882 19.9648C21.882 20.2813 21.6703 20.5451 21.3792 20.5978L16.2987 21.8374V13.2923L17.2249 14.2154C17.4101 14.4 17.6218 14.4791 17.8864 14.4791C18.1245 14.4791 18.3627 14.3736 18.5479 14.2154L21.9084 10.866V19.9648H21.882Z" fill="white"/>
</svg>
