<svg width="14" height="11" viewBox="0 0 14 11" fill="none" xmlns="http://www.w3.org/2000/svg">
<path d="M1.44364 0C1.11001 0 0.805997 0.124775 0.564941 0.32373L6.1264 5.89607C6.37465 6.10293 6.72692 6.10293 6.97517 5.89607L12.5366 0.32373C12.2956 0.124775 11.9915 0 11.6579 0H1.44364ZM0.0752651 1.14711C0.0607031 1.22718 0.0507812 1.30888 0.0507812 1.39286V8.82143C0.0507812 9.13165 0.158279 9.41666 0.332799 9.64934L4.17313 5.25314L0.0752651 1.14711ZM13.0263 1.14711L8.9112 5.27037L12.9193 9.39907C13.0014 9.22215 13.0508 9.02772 13.0508 8.82143V1.39286C13.0508 1.30888 13.0409 1.22718 13.0263 1.14711H13.0263ZM4.83057 5.91239L1.11265 10.1699C1.21936 10.1964 1.32924 10.2143 1.44364 10.2143H11.6579C11.8784 10.2143 12.0847 10.1568 12.2709 10.0638L8.25558 5.9278C8.03227 6.1523 7.8013 6.38247 7.5791 6.60338C6.98795 7.10359 6.11361 7.10359 5.52246 6.60338C5.29234 6.37779 5.06028 6.14242 4.83057 5.91239Z" fill="#3D3D3D" fill-opacity="0.7"/>
</svg>
