<svg width="20" height="20" viewBox="0 0 20 20" fill="none" xmlns="http://www.w3.org/2000/svg">
<path d="M18.4554 0H1.41521C0.634403 0 0 0.643276 0 1.43295V18.442C0 19.2317 0.634403 19.875 1.41521 19.875H18.4554C19.2362 19.875 19.875 19.2317 19.875 18.442V1.43295C19.875 0.643276 19.2362 0 18.4554 0ZM6.00686 17.0357H3.0611V7.55072H6.0113V17.0357H6.00686ZM4.53398 6.2553C3.58903 6.2553 2.82598 5.48781 2.82598 4.54729C2.82598 3.60678 3.58903 2.83929 4.53398 2.83929C5.4745 2.83929 6.24199 3.60678 6.24199 4.54729C6.24199 5.49224 5.47893 6.2553 4.53398 6.2553ZM17.049 17.0357H14.1033V12.4219C14.1033 11.3217 14.0811 9.90645 12.5727 9.90645C11.0377 9.90645 10.8026 11.1043 10.8026 12.342V17.0357H7.85684V7.55072H10.6828V8.84615H10.7227C11.1176 8.10084 12.0803 7.3156 13.5132 7.3156C16.4945 7.3156 17.049 9.28091 17.049 11.8363V17.0357Z" fill="#009CC2"/>
</svg>
