<svg width="26" height="20" viewBox="0 0 26 20" fill="none" xmlns="http://www.w3.org/2000/svg">
<path d="M3.17857 0C2.53698 0 1.95234 0.244314 1.48877 0.633878L12.1839 11.5447C12.6613 11.9498 13.3387 11.9498 13.8161 11.5447L24.5112 0.633878C24.0477 0.244314 23.463 0 22.8214 0H3.17857ZM0.547084 2.24609C0.519081 2.40287 0.5 2.56284 0.5 2.72727V17.2727C0.5 17.8801 0.706726 18.4382 1.04234 18.8938L8.42759 10.2859L0.547084 2.24609ZM25.4529 2.24609L17.5393 10.3196L25.2471 18.4038C25.405 18.0574 25.5 17.6766 25.5 17.2727V2.72727C25.5 2.56284 25.4809 2.40287 25.4529 2.24609H25.4529ZM9.69189 11.5767L2.54206 19.913C2.74727 19.965 2.95857 20 3.17857 20H22.8214C23.2455 20 23.6422 19.8874 24.0003 19.7053L16.2785 11.6069C15.849 12.0465 15.4048 12.4971 14.9775 12.9297C13.8407 13.9091 12.1593 13.9091 11.0225 12.9297C10.5799 12.488 10.1337 12.0271 9.69189 11.5767Z" fill="#06AE60"/>
</svg>
