<svg width="13" height="13" viewBox="0 0 13 13" fill="none" xmlns="http://www.w3.org/2000/svg">
<path d="M11.7464 12.3295C11.4874 12.7247 11.0377 12.9564 10.5607 12.9291C10.0837 12.9019 9.4704 12.8337 9.04792 12.7247C7.16717 12.2341 5.2183 11.062 3.56924 9.41295C1.92018 7.7639 0.748121 5.81501 0.257493 3.93427C0.148464 3.51178 0.0939501 2.91213 0.0530644 2.43513C0.0258073 1.97176 0.243871 1.52202 0.639099 1.26307L2.31541 0.14553C2.75152 -0.14067 3.33755 0.0092389 3.56924 0.47261L4.9321 3.10293C5.1229 3.4709 5.02749 3.93427 4.70041 4.19321L3.47384 5.14721C3.96447 6.06033 4.42783 6.79627 5.32732 7.68212C6.15866 8.51346 6.88097 9.0041 7.82134 9.50835L8.78898 8.26815C9.04792 7.94106 9.51129 7.83203 9.87926 8.03646L12.5232 9.39932C12.9866 9.631 13.1365 10.217 12.8503 10.6532L11.7464 12.3295Z" fill="#3D3D3D" fill-opacity="0.7"/>
</svg>
