<svg width="19" height="19" viewBox="0 0 19 19" fill="none" xmlns="http://www.w3.org/2000/svg">
<g clip-path="url(#clip0)">
<path d="M16.0698 0H2.34005C1.07805 0 0.0517578 1.0263 0.0517578 2.28829V16.018C0.0517578 17.28 1.07805 18.3063 2.34005 18.3063H16.0698C17.3318 18.3063 18.3581 17.28 18.3581 16.018V2.28829C18.3581 1.0263 17.3318 0 16.0698 0Z" fill="#1976D2"/>
<path fill-rule="evenodd" clip-rule="evenodd" d="M15.4981 9.15309H12.6377V6.8648C12.6377 6.23324 13.1503 6.29273 13.7819 6.29273H14.926V3.43237H12.6377C11.7274 3.43237 10.8543 3.794 10.2106 4.43771C9.56691 5.08141 9.20528 5.95447 9.20528 6.8648V9.15309H6.91699V12.0135H9.20528V18.3062H12.6377V12.0135H14.3539L15.4981 9.15309Z" fill="#FAFAFA"/>
</g>
<defs>
<clipPath id="clip0">
<rect width="18.3063" height="18.3063" fill="white" transform="translate(0.0517578)"/>
</clipPath>
</defs>
</svg>
