<svg width="19" height="18" viewBox="0 0 19 18" fill="none" xmlns="http://www.w3.org/2000/svg">
<rect x="1.17676" y="1.125" width="15.75" height="15.75" rx="6" fill="url(#paint0_radial)"/>
<rect x="1.17676" y="1.125" width="15.75" height="15.75" rx="6" fill="url(#paint1_radial)"/>
<rect x="1.17676" y="1.125" width="15.75" height="15.75" rx="6" fill="url(#paint2_radial)"/>
<path d="M12.9893 5.90625C12.9893 6.37224 12.6115 6.75 12.1455 6.75C11.6795 6.75 11.3018 6.37224 11.3018 5.90625C11.3018 5.44026 11.6795 5.0625 12.1455 5.0625C12.6115 5.0625 12.9893 5.44026 12.9893 5.90625Z" fill="white"/>
<path fill-rule="evenodd" clip-rule="evenodd" d="M9.05176 11.8125C10.6051 11.8125 11.8643 10.5533 11.8643 9C11.8643 7.4467 10.6051 6.1875 9.05176 6.1875C7.49846 6.1875 6.23926 7.4467 6.23926 9C6.23926 10.5533 7.49846 11.8125 9.05176 11.8125ZM9.05176 10.6875C9.98374 10.6875 10.7393 9.93198 10.7393 9C10.7393 8.06802 9.98374 7.3125 9.05176 7.3125C8.11978 7.3125 7.36426 8.06802 7.36426 9C7.36426 9.93198 8.11978 10.6875 9.05176 10.6875Z" fill="white"/>
<path fill-rule="evenodd" clip-rule="evenodd" d="M3.42676 8.775C3.42676 6.88482 3.42676 5.93973 3.79461 5.21778C4.11818 4.58274 4.63449 4.06643 5.26954 3.74285C5.99149 3.375 6.93658 3.375 8.82676 3.375H9.27676C11.1669 3.375 12.112 3.375 12.834 3.74285C13.469 4.06643 13.9853 4.58274 14.3089 5.21778C14.6768 5.93973 14.6768 6.88482 14.6768 8.775V9.225C14.6768 11.1152 14.6768 12.0603 14.3089 12.7822C13.9853 13.4173 13.469 13.9336 12.834 14.2571C12.112 14.625 11.1669 14.625 9.27676 14.625H8.82676C6.93658 14.625 5.99149 14.625 5.26954 14.2571C4.63449 13.9336 4.11818 13.4173 3.79461 12.7822C3.42676 12.0603 3.42676 11.1152 3.42676 9.225V8.775ZM8.82676 4.5H9.27676C10.2404 4.5 10.8955 4.50087 11.4018 4.54225C11.8951 4.58254 12.1473 4.65558 12.3232 4.74524C12.7466 4.96095 13.0908 5.30516 13.3065 5.72852C13.3962 5.90447 13.4692 6.1567 13.5095 6.64992C13.5509 7.15627 13.5518 7.81135 13.5518 8.775V9.225C13.5518 10.1887 13.5509 10.8437 13.5095 11.3501C13.4692 11.8433 13.3962 12.0955 13.3065 12.2715C13.0908 12.6948 12.7466 13.039 12.3232 13.2548C12.1473 13.3444 11.8951 13.4175 11.4018 13.4578C10.8955 13.4991 10.2404 13.5 9.27676 13.5H8.82676C7.86311 13.5 7.20803 13.4991 6.70168 13.4578C6.20846 13.4175 5.95623 13.3444 5.78028 13.2548C5.35691 13.039 5.01271 12.6948 4.79699 12.2715C4.70734 12.0955 4.6343 11.8433 4.594 11.3501C4.55263 10.8437 4.55176 10.1887 4.55176 9.225V8.775C4.55176 7.81135 4.55263 7.15627 4.594 6.64992C4.6343 6.1567 4.70734 5.90447 4.79699 5.72852C5.01271 5.30516 5.35691 4.96095 5.78028 4.74524C5.95623 4.65558 6.20846 4.58254 6.70168 4.54225C7.20803 4.50087 7.86311 4.5 8.82676 4.5Z" fill="white"/>
<defs>
<radialGradient id="paint0_radial" cx="0" cy="0" r="1" gradientUnits="userSpaceOnUse" gradientTransform="translate(6.80176 12.9375) rotate(-55.3758) scale(14.3548)">
<stop stop-color="#B13589"/>
<stop offset="0.79309" stop-color="#C62F94"/>
<stop offset="1" stop-color="#8A3AC8"/>
</radialGradient>
<radialGradient id="paint1_radial" cx="0" cy="0" r="1" gradientUnits="userSpaceOnUse" gradientTransform="translate(6.23926 17.4375) rotate(-65.1363) scale(12.7093)">
<stop stop-color="#E0E8B7"/>
<stop offset="0.444662" stop-color="#FB8A2E"/>
<stop offset="0.71474" stop-color="#E2425C"/>
<stop offset="1" stop-color="#E2425C" stop-opacity="0"/>
</radialGradient>
<radialGradient id="paint2_radial" cx="0" cy="0" r="1" gradientUnits="userSpaceOnUse" gradientTransform="translate(0.333009 1.6875) rotate(-8.1301) scale(21.8761 4.67908)">
<stop offset="0.156701" stop-color="#406ADC"/>
<stop offset="0.467799" stop-color="#6A45BE"/>
<stop offset="1" stop-color="#6A45BE" stop-opacity="0"/>
</radialGradient>
</defs>
</svg>
