<svg width="21" height="18" viewBox="0 0 21 18" fill="none" xmlns="http://www.w3.org/2000/svg">
<rect x="0.496094" width="19.5555" height="17.7778" rx="1.77778" fill="#009CC2"/>
<path d="M5.36103 4.14818C5.04719 4.14818 4.7612 4.26555 4.53445 4.45271L9.76604 9.69454C9.99957 9.88914 10.3309 9.88914 10.5645 9.69454L15.7961 4.45271C15.5693 4.26555 15.2833 4.14818 14.9695 4.14818H5.36103ZM4.07381 5.22725C4.06011 5.30257 4.05078 5.37943 4.05078 5.45842V12.4464C4.05078 12.7382 4.1519 13.0063 4.31607 13.2252L7.92863 9.08975L4.07381 5.22725ZM16.2567 5.22725L12.3857 9.10595L16.156 12.9898C16.2333 12.8233 16.2797 12.6404 16.2797 12.4464V5.45842C16.2797 5.37943 16.2704 5.30257 16.2567 5.22725H16.2567ZM8.54707 9.70989L5.04967 13.7148C5.15005 13.7398 5.25341 13.7566 5.36103 13.7566H14.9695C15.1769 13.7566 15.371 13.7026 15.5461 13.615L11.7689 9.72439C11.5589 9.93557 11.3416 10.1521 11.1326 10.3599C10.5765 10.8304 9.75402 10.8304 9.19793 10.3599C8.98146 10.1477 8.76316 9.92628 8.54707 9.70989Z" fill="white"/>
</svg>
