<svg width="13" height="10" viewBox="0 0 13 10" fill="none" xmlns="http://www.w3.org/2000/svg">
<path d="M1.362 0.148193C1.04816 0.148193 0.762181 0.265568 0.535422 0.452723L5.76702 5.69455C6.00054 5.88915 6.33192 5.88915 6.56545 5.69455L11.797 0.452723C11.5703 0.265568 11.2843 0.148193 10.9705 0.148193H1.362ZM0.0747895 1.22727C0.0610912 1.30259 0.0517578 1.37944 0.0517578 1.45844V8.44641C0.0517578 8.73823 0.152879 9.00634 0.317048 9.22522L3.9296 5.08976L0.0747895 1.22727ZM12.2577 1.22727L8.38665 5.10597L12.157 8.98979C12.2342 8.82336 12.2807 8.64046 12.2807 8.44641V1.45844C12.2807 1.37944 12.2714 1.30259 12.2577 1.22727H12.2577ZM4.54805 5.70991L1.05065 9.71486C1.15103 9.73986 1.25439 9.75665 1.362 9.75665H10.9705C11.1779 9.75665 11.372 9.70257 11.5471 9.61505L7.76992 5.72441C7.55985 5.93559 7.34258 6.15211 7.13356 6.35991C6.57747 6.83045 5.75499 6.83045 5.1989 6.35991C4.98243 6.1477 4.76413 5.92629 4.54805 5.70991Z" fill="white"/>
</svg>
