<svg width="19" height="19" viewBox="0 0 19 19" fill="none" xmlns="http://www.w3.org/2000/svg">
<g clip-path="url(#clip0)">
<path d="M18.5807 4.04902C17.8921 4.34936 17.1638 4.54896 16.4183 4.64168C17.2039 4.17559 17.7914 3.43754 18.0693 2.56735C17.3336 3.00365 16.5287 3.3109 15.6895 3.4758C15.1749 2.92636 14.5069 2.54437 13.7724 2.37947C13.0379 2.21458 12.2708 2.27438 11.5707 2.55113C10.8707 2.82788 10.27 3.30877 9.8468 3.93132C9.42359 4.55388 9.19739 5.28933 9.19759 6.04211C9.19759 6.33959 9.22276 6.62563 9.28455 6.89793C7.79153 6.82473 6.33077 6.43724 4.99778 5.76079C3.66479 5.08434 2.48958 4.13416 1.54899 2.97238C1.0671 3.79829 0.91812 4.77682 1.13239 5.70871C1.34666 6.64061 1.90806 7.45581 2.70229 7.9883C2.1082 7.97237 1.52665 7.81384 1.00667 7.52607V7.56726C1.00766 8.43387 1.30719 9.27368 1.85484 9.94531C2.40249 10.617 3.16481 11.0794 4.01348 11.2548C3.69241 11.3394 3.36153 11.381 3.02951 11.3784C2.79106 11.3826 2.55285 11.3612 2.319 11.3143C2.56149 12.0592 3.02893 12.7106 3.65695 13.1788C4.28498 13.647 5.0427 13.909 5.8258 13.9287C4.49738 14.9676 2.859 15.5312 1.17257 15.5294C0.864792 15.5294 0.569603 15.5156 0.274414 15.4779C1.99049 16.5837 3.99022 17.1687 6.03175 17.162C12.9378 17.162 16.7135 11.4413 16.7135 6.48261C16.7135 6.31671 16.7078 6.15653 16.6997 5.99749C17.44 5.46774 18.0774 4.80745 18.5807 4.04902Z" fill="#03A9F4"/>
</g>
<defs>
<clipPath id="clip0">
<rect width="18.3063" height="18.3063" fill="white" transform="translate(0.274414)"/>
</clipPath>
</defs>
</svg>
